<mxfile host="app.diagrams.net" modified="2023-03-27T03:35:17.213Z" agent="Mozilla/5.0 (Windows NT 10.0; Win64; x64; rv:109.0) Gecko/20100101 Firefox/111.0" version="21.1.1" etag="cXwf4DAscXMnol7iyihN" type="github">
  <diagram name="第 1 页" id="GWYo0FBAUiMZKAyBpaA-">
    <mxGraphModel>
      <root>
        <mxCell id="0" />
        <mxCell id="1" parent="0" />
      </root>
    </mxGraphModel>
  </diagram>
</mxfile>
